<svg width="400" height="400" viewBox="0 0 400 400" fill="none" xmlns="http://www.w3.org/2000/svg">
<path d="M139.448 178.301V248.24L160.125 224.937L165.705 232.157L104.001 296.487C103.344 300.535 103.016 307.844 106.955 304.693L333.75 64.4402C334.626 71.1139 333.685 88.3998 322.919 104.154C318.543 109.843 309.462 124.7 308.15 138.617L250.056 197.695L245.789 212.136L149.622 268.589L139.448 283.687L139.448 344.078C148.309 344.078 148.113 352.612 139.448 352.612H88.5746C82.6667 352.612 82.5354 344.407 88.5746 344.407L88.5746 178.301C81.6821 178.301 83.3232 172.721 88.5746 172.721H144.043C149.294 172.721 148.309 178.301 144.043 178.301H139.448Z" fill="white"/>
<path d="M172.269 224.937L328.171 58.2042C322.482 51.8587 306.64 41.9248 288.785 52.9527L248.415 85.1177C246.992 92.3384 244.476 109.274 245.789 119.252C243.273 115.204 238.24 104.482 238.24 93.9795L179.49 142.555L168.002 223.624L172.269 224.937Z" fill="white"/>
<path d="M152.904 277.123L226.424 231.501L217.891 241.676C213.515 245.724 205.747 255.132 209.685 260.384L282.877 344.078C291.082 344.078 293.38 352.612 284.19 352.612H206.403L202.465 344.407H210.998L152.904 277.123Z" fill="white"/>
</svg>
